<svg viewBox="0 0 302 302" xmlns="http://www.w3.org/2000/svg" xmlns:xlink="http://www.w3.org/1999/xlink" width="302.000000" height="302.000000" fill="none">
	<defs>
		<linearGradient id="paint_linear_0" x1="151" x2="151" y1="71" y2="231" gradientUnits="userSpaceOnUse">
			<stop stop-color="rgb(0,117,255)" offset="0.00421940908" stop-opacity="1" />
			<stop stop-color="rgb(0,130,255)" offset="0.555810869" stop-opacity="1" />
			<stop stop-color="rgb(0,161,255)" offset="1" stop-opacity="1" />
		</linearGradient>
	</defs>
	<rect id="cloudlogo" width="300.000000" height="300.000000" x="1.000000" y="1.000000" fill="rgb(255,255,255)" fill-opacity="0" />
	<path id="矢量 498" d="M91.3884 230.974C60.2945 230.974 35 205.682 35 174.624C35 145.711 56.9288 121.842 85.0453 118.661C94.1845 90.4472 120.566 71 150.573 71C188.528 71 219.414 101.852 219.414 139.789C219.414 142.893 219.129 145.996 218.715 149.048C221.019 148.66 223.298 148.401 225.68 148.401C248.463 148.401 267 166.891 267 189.701C267 212.432 248.489 231 225.68 231L91.3884 230.974L91.3884 230.974ZM49.2654 174.624C49.2654 197.821 68.1651 216.699 91.3884 216.699L225.654 216.699C240.54 216.699 252.683 204.596 252.683 189.701C252.683 174.779 240.566 162.702 225.654 162.702C221.744 162.702 218.016 163.504 214.521 165.107C211.751 172.115 207.841 178.658 202.896 184.503L192.049 175.219C200.515 165.366 205.149 152.797 205.149 139.815C205.149 109.739 180.657 85.301 150.573 85.301C128.23 85.301 108.424 98.8778 100.113 119.075C106.016 120.058 112.023 122.075 118.314 125.152L143.168 137.695L136.67 150.418L112.023 137.953C104.644 134.333 97.8609 132.574 91.3884 132.574C68.1651 132.6 49.2654 151.453 49.2654 174.624L49.2654 174.624Z" fill="url(#paint_linear_0)" fill-rule="nonzero" />
	<rect id="cloudlogo" width="301.000000" height="301.000000" x="0.500000" y="0.500000" stroke="rgb(0,0,0)" stroke-opacity="0" stroke-width="1.000000" />
</svg>
