<svg viewBox="0 0 432 432" xmlns="http://www.w3.org/2000/svg" xmlns:xlink="http://www.w3.org/1999/xlink" width="432.000000" height="432.000000" fill="none" customFrame="#000000">
	<g id="组合 243">
		<rect id="矩形 119" width="432.000000" height="432.000000" x="0.000000" y="0.000000" fill="rgb(255,255,255)" fill-opacity="0" />
		<g id="XMLID_19_">
			<path id="XMLID_22_" d="M343.332 294.501C337.735 300.096 326.541 308.489 306.951 308.489C298.556 308.489 288.761 308.489 284.563 308.489C278.966 308.489 236.989 308.489 186.616 308.489C222.996 273.518 253.78 244.142 256.578 241.344C259.377 238.546 266.373 231.552 273.369 225.957C287.362 213.367 298.556 211.968 308.35 211.968C322.343 211.968 333.537 217.563 343.332 225.957C362.921 244.142 362.921 276.315 343.332 294.501ZM367.119 203.575C353.126 188.187 332.138 178.395 309.75 178.395C290.16 178.395 273.369 185.39 257.978 196.581C252.381 202.176 243.985 207.771 236.989 216.165C231.392 221.76 111.057 339.264 111.057 339.264C118.053 340.663 126.448 340.663 133.445 340.663C140.441 340.663 280.366 340.663 285.963 340.663C297.157 340.663 305.552 340.663 313.947 339.264C332.138 337.865 350.328 330.871 365.72 316.882C397.902 286.107 397.902 234.35 367.119 203.575Z" fill="rgb(0,163,255)" fill-rule="nonzero" />
			<path id="XMLID_2_" d="M171.223 195.182C155.831 183.991 140.44 178.395 122.25 178.395C99.8616 178.395 78.8729 188.187 64.8804 203.575C34.097 235.749 34.097 286.107 66.2797 318.281C80.2721 330.871 94.2646 337.865 111.056 339.264L143.238 308.489C137.641 308.489 130.645 308.489 125.048 308.489C106.858 307.09 95.6639 301.495 88.6676 294.501C69.0782 274.917 69.0782 244.142 87.2684 224.558C97.0631 214.766 108.257 210.569 122.25 210.569C130.645 210.569 143.238 211.968 155.831 224.558C161.428 230.153 176.82 241.344 182.417 246.939L183.816 246.939L204.805 225.957L204.805 224.558C195.01 214.766 179.619 202.176 171.223 195.182Z" fill="rgb(0,200,220)" fill-rule="nonzero" />
			<path id="XMLID_1_" d="M318.144 160.21C302.752 118.245 262.174 88.8686 215.999 88.8686C161.428 88.8686 118.052 129.435 109.656 179.794C113.854 179.794 118.052 178.395 123.649 178.395C129.246 178.395 136.242 179.794 141.839 179.794C148.835 144.823 179.619 119.643 215.999 119.643C246.782 119.643 273.368 137.829 285.961 164.407C285.961 164.407 287.361 165.806 287.361 164.407C297.155 163.008 308.349 160.21 318.144 160.21Z" fill="rgb(0,110,255)" fill-rule="nonzero" />
		</g>
	</g>
</svg>
