<svg viewBox="0 0 302 302" xmlns="http://www.w3.org/2000/svg" xmlns:xlink="http://www.w3.org/1999/xlink" width="302.000000" height="302.000000" fill="none">
	<defs>
		<linearGradient id="paint_linear_2" x1="173.824677" x2="173.824677" y1="126.444458" y2="236.000183" gradientUnits="userSpaceOnUse">
			<stop stop-color="rgb(66,180,245)" offset="0" stop-opacity="1" />
			<stop stop-color="rgb(43,134,253)" offset="1" stop-opacity="1" />
		</linearGradient>
	</defs>
	<rect id="icon" width="300.000000" height="300.000000" x="1.000000" y="1.000000" fill="rgb(255,255,255)" fill-opacity="0" />
	<g id="组合 330">
		<path id="矢量 510" d="M236.469 204.833C232.69 208.611 225.133 214.278 211.907 214.278C206.239 214.278 199.626 214.278 196.792 214.278C193.013 214.278 164.672 214.278 130.662 214.278C155.225 190.667 176.008 170.833 177.898 168.944C179.787 167.056 184.511 162.333 189.234 158.556C198.681 150.056 206.239 149.111 212.852 149.111C222.299 149.111 229.856 152.889 236.469 158.556C249.695 170.833 249.695 192.556 236.469 204.833ZM252.529 143.444C243.082 133.056 228.912 126.444 213.796 126.444C200.571 126.444 189.234 131.167 178.842 138.722C175.064 142.5 169.395 146.278 164.672 151.944C160.893 155.722 79.6484 235.056 79.6484 235.056C84.3719 236 90.0401 236 94.7637 236C99.4872 236 193.958 236 197.736 236C205.294 236 210.962 236 216.631 235.056C228.912 234.111 241.193 229.389 251.585 219.944C273.313 199.167 273.313 164.222 252.529 143.444Z" fill="url(#paint_linear_2)" fill-rule="nonzero" />
		<path id="矢量 511" d="M120.269 137.778C109.877 130.222 99.4855 126.444 87.2043 126.444C72.0891 126.444 57.9185 133.056 48.4715 143.444C27.688 165.167 27.688 199.167 49.4162 220.889C58.8632 229.389 68.3103 234.111 79.6467 235.056L101.375 214.278C97.5961 214.278 92.8726 214.278 89.0938 214.278C76.8126 213.333 69.255 209.556 64.5315 204.833C51.3056 191.611 51.3056 170.833 63.5868 157.611C70.1997 151 77.7573 148.167 87.2043 148.167C92.8725 148.167 101.375 149.111 109.877 157.611C113.656 161.389 124.048 168.944 127.827 172.722L128.771 172.722L142.942 158.556L142.942 157.611C136.329 151 125.937 142.5 120.269 137.778Z" fill="rgb(0,82,217)" fill-rule="nonzero" />
		<path id="矢量 512" d="M219.464 114.167C209.072 85.8334 181.676 66 150.501 66C113.657 66 84.3713 93.3889 78.7031 127.389C81.5373 127.389 84.3713 126.444 88.1501 126.444C91.929 126.444 96.6525 127.389 100.431 127.389C105.155 103.778 125.938 86.7778 150.501 86.7778C171.284 86.7778 189.233 99.0556 197.736 117C197.736 117 198.68 117.944 198.68 117C205.293 116.056 212.851 114.167 219.464 114.167Z" fill="rgb(0,110,255)" fill-rule="nonzero" />
	</g>
	<rect id="icon" width="301.000000" height="301.000000" x="0.500000" y="0.500000" stroke="rgb(0,0,0)" stroke-opacity="0" stroke-width="1.000000" />
</svg>
