<svg viewBox="0 0 100 100" xmlns="http://www.w3.org/2000/svg" xmlns:xlink="http://www.w3.org/1999/xlink" width="100.000000" height="100.000000" fill="none" customFrame="#000000">
	<defs>
		<linearGradient id="paint_linear_4" x1="49.6882706" x2="49.6882706" y1="28" y2="71.8610077" gradientUnits="userSpaceOnUse">
			<stop stop-color="rgb(0,110,255)" offset="0" stop-opacity="1" />
			<stop stop-color="rgb(0,163,255)" offset="1" stop-opacity="1" />
		</linearGradient>
	</defs>
	<g id="icon">
		<rect id="矩形 133" width="100.000000" height="100.000000" x="0.000000" y="0.000000" fill="rgb(255,255,255)" fill-opacity="0" />
		<g id="XMLID_19_">
			<g id="组合 325" opacity="0">
				<path id="XMLID_22_" d="M70.3853 63.3291C69.4371 64.2758 67.5408 65.6958 64.2223 65.6958C62.8001 65.6958 61.1408 65.6958 60.4297 65.6958C59.4816 65.6958 52.3704 65.6958 43.8371 65.6958C50.0001 59.7791 55.2149 54.8091 55.689 54.3358C56.163 53.8625 57.3482 52.6791 58.5334 51.7325C60.9038 49.6025 62.8001 49.3658 64.4593 49.3658C66.8297 49.3658 68.726 50.3125 70.3853 51.7325C73.7038 54.8091 73.7038 60.2525 70.3853 63.3291ZM74.4149 47.9458C72.0445 45.3425 68.489 43.6858 64.6964 43.6858C61.3779 43.6858 58.5334 44.8691 55.926 46.7625C54.9779 47.7091 53.5556 48.6558 52.3704 50.0758C51.4223 51.0225 31.0371 70.9025 31.0371 70.9025C32.2223 71.1391 33.6445 71.1391 34.8297 71.1391C36.0149 71.1391 59.7186 71.1391 60.6667 71.1391C62.563 71.1391 63.9853 71.1391 65.4075 70.9025C68.489 70.6658 71.5704 69.4825 74.1779 67.1158C79.6297 61.9091 79.6297 53.1525 74.4149 47.9458Z" fill="rgb(0,163,255)" fill-rule="nonzero" />
				<path id="XMLID_2_" d="M41.2308 46.5258C38.6234 44.6325 36.016 43.6858 32.9345 43.6858C29.1419 43.6858 25.5863 45.3425 23.216 47.9458C18.0011 53.3891 18.0011 61.9091 23.453 67.3525C25.8234 69.4825 28.1937 70.6658 31.0382 70.9025L36.49 65.6958C35.5419 65.6958 34.3567 65.6958 33.4086 65.6958C30.3271 65.4591 28.4308 64.5125 27.2456 63.3291C23.9271 60.0158 23.9271 54.8091 27.0086 51.4958C28.6678 49.8391 30.5641 49.1291 32.9345 49.1291C34.3567 49.1291 36.49 49.3658 38.6234 51.4958C39.5715 52.4425 42.1789 54.3358 43.1271 55.2825L43.3641 55.2825L46.9197 51.7325L46.9197 51.4958C45.2604 49.8391 42.653 47.7091 41.2308 46.5258Z" fill="rgb(0,200,220)" fill-rule="nonzero" />
				<path id="XMLID_1_" d="M66.1193 40.6091C63.5119 33.5091 56.6378 28.5391 48.8156 28.5391C39.5712 28.5391 32.223 35.4024 30.8008 43.9224C31.5119 43.9224 32.223 43.6857 33.1712 43.6857C34.1193 43.6857 35.3045 43.9224 36.2526 43.9224C37.4378 38.0057 42.6526 33.7457 48.8156 33.7457C54.0304 33.7457 58.5341 36.8224 60.6674 41.3191C60.6674 41.3191 60.9045 41.5557 60.9045 41.3191C62.5638 41.0824 64.46 40.6091 66.1193 40.6091Z" fill="rgb(0,110,255)" fill-rule="nonzero" />
			</g>
			<path id="矢量 484" d="M64.9733 71.8471L33.7215 71.8471C26.1277 72.1811 19.6908 66.4625 19.3485 59.0688C19.0028 51.6768 24.8798 45.4116 32.4735 45.0759C32.4533 36.0932 39.6018 28.6371 48.8094 28.0382C58.017 27.4411 66.1201 33.9053 67.3258 42.8121C75.0865 43.9761 80.6128 50.7709 79.9955 58.3907C79.3783 66.0121 72.8285 71.8808 64.975 71.8471L64.9733 71.8471ZM35.5461 66.9787L64.9733 66.9787C68.5468 66.9787 71.8487 65.1231 73.6345 62.112C74.5115 60.6399 74.9744 58.9581 74.9744 57.2444C74.9744 55.5308 74.5115 53.849 73.6345 52.3769C71.847 49.3641 68.5468 47.5085 64.9733 47.5101C64.3106 47.5101 63.6748 47.2537 63.206 46.7966C62.9748 46.5735 62.7908 46.3062 62.6648 46.0107C62.5388 45.7151 62.4734 45.3973 62.4724 45.0759C62.4724 38.3553 56.877 32.9066 49.973 32.9066C43.069 32.9066 37.4719 38.3553 37.4719 45.0759L37.4719 45.5871C43.3827 47.2267 47.462 52.4781 47.4721 58.4615C47.4721 59.3303 46.9966 60.1349 46.2225 60.5701C45.8405 60.7841 45.4099 60.8964 44.9721 60.8964C44.5342 60.8964 44.1037 60.7841 43.7216 60.5701C43.345 60.3614 43.0308 60.056 42.8115 59.6853C42.5921 59.3147 42.4755 58.8922 42.4737 58.4615C42.4737 53.7669 38.5698 49.9562 33.7467 49.9427C28.9136 49.9427 24.9962 53.7567 24.9962 58.4615C24.9962 63.1646 28.9136 66.9804 33.7467 66.9804L34.7215 66.9804C34.9947 66.9348 35.2746 66.9348 35.5478 66.9804L35.5461 66.9787Z" fill="url(#paint_linear_4)" fill-rule="nonzero" />
		</g>
	</g>
</svg>
