<svg viewBox="0 0 73 73" xmlns="http://www.w3.org/2000/svg" xmlns:xlink="http://www.w3.org/1999/xlink" width="73.000000" height="73.000000" fill="none">
	<rect id="云 1" width="73.000000" height="73.000000" x="0.000000" y="0.000000" />
	<path id="矢量 482" d="M54.8809 62.8449L17.3021 62.8449C8.17106 63.2464 0.431031 56.3722 0.0193916 47.4845C-0.396303 38.5988 6.6705 31.0676 15.8016 30.6641C15.7773 19.8661 24.373 10.9034 35.4447 10.1835C46.5163 9.46567 56.2598 17.2361 57.7097 27.9428C67.0415 29.3419 73.6865 37.5098 72.9444 46.6693C72.2022 55.8308 64.3263 62.8855 54.8829 62.8449L54.8809 62.8449ZM19.4962 56.9927L54.8809 56.9927C59.1778 56.9927 63.1482 54.7622 65.2956 51.1426C66.35 49.373 66.9067 47.3514 66.9067 45.2914C66.9067 43.2315 66.35 41.2099 65.2956 39.4403C63.1461 35.8187 59.1778 33.5881 54.8809 33.5901C54.084 33.5901 53.3195 33.2819 52.7558 32.7324C52.4778 32.4642 52.2565 32.143 52.105 31.7877C51.9535 31.4324 51.8748 31.0503 51.8737 30.6641C51.8737 22.5854 45.1456 16.0357 36.8438 16.0357C28.5421 16.0357 21.8119 22.5854 21.8119 30.6641L21.8119 31.2785C28.9193 33.2495 33.8245 39.5619 33.8366 46.7545C33.8366 47.7988 33.2648 48.766 32.3341 49.2892C31.8747 49.5464 31.357 49.6814 30.8305 49.6814C30.304 49.6814 29.7863 49.5464 29.3269 49.2892C28.874 49.0383 28.4962 48.6711 28.2325 48.2256C27.9687 47.78 27.8285 47.2722 27.8263 46.7545C27.8263 41.1112 23.132 36.5304 17.3326 36.5142C11.521 36.5142 6.81042 41.099 6.81042 46.7545C6.81042 52.4079 11.521 56.9947 17.3326 56.9947L18.5046 56.9947C18.8331 56.94 19.1697 56.94 19.4982 56.9947L19.4962 56.9927Z" fill="rgb(0,110,255)" fill-rule="nonzero" />
</svg>
