<svg viewBox="0 0 150 37" xmlns="http://www.w3.org/2000/svg" xmlns:xlink="http://www.w3.org/1999/xlink" width="150.000000" height="37.000000" fill="none" customFrame="#000000">
	<rect id="logo 5" width="150.000000" height="37.000000" x="0.000000" y="0.000000" />
	<g id="组合 240">
		<rect id="矩形 117" width="150.000000" height="37.000000" x="0.000000" y="0.000000" fill="rgb(255,255,255)" fill-opacity="0" />
		<g id="组合 239">
			<g id="组合 238">
				<path id="矢量 270" d="M60.8145 4.75096C60.8037 4.7347 60.782 4.71573 60.7567 4.69405L57.7221 3.71847C57.705 3.70386 57.6896 3.69786 57.6758 3.70049C57.6691 3.70176 57.6629 3.70504 57.657 3.71034C57.6461 3.72118 57.6317 3.74015 57.6063 3.76725C56.637 6.54223 55.5158 9.2576 54.2462 11.9134C52.9839 14.5691 51.577 17.1761 50.0326 19.7343C50.0109 19.7614 50 19.7885 50 19.8156C50.0036 19.8372 50.0181 19.8589 50.0398 19.8806L52.1484 23.1732C52.1701 23.1949 52.1846 23.2057 52.1882 23.2057C52.1991 23.2003 52.2135 23.184 52.2389 23.1569C53.1297 21.6757 53.9833 20.1627 54.7996 18.6178L54.7996 34.433C54.7996 34.4872 54.8286 34.5143 54.8828 34.5143L58.0982 34.5143C58.1525 34.5143 58.1778 34.4872 58.1778 34.433L58.1778 15.1978C58.1778 15.1436 58.1525 15.1165 58.0982 15.1165L56.5598 15.1165C58.1363 11.8169 59.5523 8.38072 60.8073 4.80787C60.829 4.78077 60.8326 4.7618 60.8145 4.75096ZM95.3125 3.92985C95.3668 3.92985 95.3921 3.95694 95.3921 4.01114L95.3921 6.71838L102.521 6.71838C102.575 6.71838 102.604 6.74277 102.604 6.79155L102.604 9.89715C102.604 9.95135 102.575 9.97845 102.521 9.97845L93.435 9.97845L89.2397 15.7262L91.9264 18.0635C93.7602 15.9543 95.2937 13.5899 96.5242 10.9703C96.5676 10.9161 96.6073 10.9025 96.6471 10.9296L99.5262 12.2629C99.5804 12.3009 99.5949 12.3415 99.5696 12.3849C98.7982 13.9863 97.9172 15.5129 96.9265 16.9647L96.9265 16.9648C96.0127 18.3039 95.0057 19.5793 93.9055 20.7911C91.6088 23.3114 88.9938 25.3764 86.0569 26.9861C86.0207 27.0132 85.9845 27.0023 85.9447 26.9536L84.4293 24.1813C84.4112 24.1488 84.4256 24.1108 84.4727 24.0675C86.058 23.196 87.5304 22.19 88.8899 21.0494L88.89 21.0494C88.8985 21.0422 88.9071 21.035 88.9156 21.0279C89.1622 20.8204 89.4051 20.6085 89.6443 20.3922L84.9429 16.2222C84.9429 16.2222 84.9392 16.2167 84.9356 16.2059L84.9356 16.1896C84.9247 16.1409 84.9247 16.1138 84.9356 16.1083L89.3964 9.97845L84.6029 9.97845C84.5486 9.97845 84.5197 9.95135 84.5197 9.89715L84.5197 6.79155C84.5197 6.74277 84.5486 6.71838 84.6029 6.71838L91.862 6.71838L91.862 4.01114C91.862 3.95694 91.8873 3.92985 91.9416 3.92985L95.3125 3.92985ZM69.6036 4.05179C69.6036 3.99759 69.5747 3.97049 69.5204 3.97049L66.3086 3.97049C66.2543 3.97049 66.2254 3.99759 66.2254 4.05179L66.2254 10.4906L60.4962 10.4906C60.442 10.4906 60.4167 10.5177 60.4167 10.5719L60.4167 13.6775C60.4167 13.7317 60.442 13.7588 60.4962 13.7588L66.2105 13.7588C66.1541 16.3445 65.938 18.6209 65.5599 20.5879C65.1186 22.8968 64.3808 25.0024 63.3464 26.9048C62.3155 28.8072 60.8832 30.6418 59.0495 32.4087C58.9988 32.4575 58.988 32.4981 59.0169 32.5306L61.2775 34.807C61.3028 34.8395 61.3426 34.8314 61.3932 34.7826C63.4549 32.8097 65.0825 30.7258 66.276 28.5307C67.4732 26.3357 68.3304 23.9374 68.8404 21.3358C69.2789 19.0946 69.5275 16.5689 69.5886 13.7588L81.4055 13.7588C81.4598 13.7588 81.4851 13.7317 81.4851 13.6775L81.4851 10.5719C81.4851 10.5177 81.4598 10.4906 81.4055 10.4906L69.6036 10.4906L69.6036 4.05179ZM76.8627 4.04366C76.8193 3.98946 76.7795 3.97591 76.7397 4.00301L73.8607 4.96234C73.8218 4.99337 73.8034 5.02301 73.8053 5.05126C73.8061 5.06249 73.8101 5.07349 73.8173 5.08428L75.4702 9.71829C75.5136 9.77249 75.5534 9.78604 75.5932 9.75894L78.4758 8.79962C78.5301 8.76168 78.5409 8.72103 78.5156 8.67767L76.8627 4.04366ZM114.225 4.0274C114.272 4.0274 114.298 4.0545 114.298 4.1087L114.298 34.0916C114.298 34.1458 114.272 34.1729 114.225 34.1729L107.389 34.1729C107.335 34.1729 107.306 34.1458 107.306 34.0916L107.306 30.6689C107.306 30.6147 107.335 30.5876 107.389 30.5876L110.927 30.5876L110.927 4.1087C110.927 4.0545 110.956 4.0274 111.01 4.0274L114.225 4.0274ZM145.237 5.55581C145.237 5.50161 145.211 5.47451 145.164 5.47451L120.273 5.47451C120.218 5.47451 120.19 5.50161 120.19 5.55581L120.19 8.7671C120.19 8.8213 120.218 8.8484 120.273 8.8484L145.164 8.8484C145.211 8.8484 145.237 8.8213 145.237 8.7671L145.237 5.55581ZM107.364 6.49888C107.411 6.49888 107.436 6.52326 107.436 6.57204L107.436 27.3113C107.436 27.3655 107.411 27.3926 107.364 27.3926L104.199 27.3926C104.152 27.3926 104.127 27.3655 104.127 27.3113L104.127 6.57204C104.127 6.52326 104.152 6.49888 104.199 6.49888L107.364 6.49888ZM75.3798 15.7994C75.3798 15.7452 75.3545 15.7181 75.3002 15.7181L72.0848 15.7181C72.0305 15.7181 72.0052 15.7452 72.0052 15.7994L72.0052 34.0347C72.0052 34.0618 72.0088 34.0807 72.0197 34.0916C72.0378 34.1078 72.0595 34.116 72.0848 34.116L81.8359 34.116C81.8902 34.116 81.9155 34.0889 81.9155 34.0347L81.9155 30.8234C81.9155 30.7692 81.8902 30.7421 81.8359 30.7421L75.3798 30.7421L75.3798 15.7994ZM147.812 15.8401C147.812 15.7859 147.783 15.7588 147.729 15.7588L118.367 15.7588C118.312 15.7588 118.283 15.7859 118.283 15.8401L118.283 19.0514C118.283 19.1056 118.312 19.1327 118.367 19.1327L128.709 19.1327L118.204 33.2948C118.204 33.3003 118.2 33.3084 118.197 33.3192L118.197 33.3517C118.2 33.3626 118.218 33.368 118.244 33.368L145.645 33.368C145.7 33.368 145.728 33.3409 145.728 33.2867L145.728 25.8398C145.728 25.7856 145.7 25.7585 145.645 25.7585L142.383 25.7585C142.329 25.7585 142.3 25.7856 142.3 25.8398L142.3 30.0023L124.91 30.0023L132.97 19.1327L147.729 19.1327C147.783 19.1327 147.812 19.1056 147.812 19.0514L147.812 15.8401ZM99.3634 17.9701C99.4068 17.9159 99.4466 17.9023 99.4864 17.9294L102.261 19.4253C102.315 19.4633 102.329 19.5012 102.304 19.5391C101.013 21.921 99.5009 24.1098 97.7667 26.1055L97.7666 26.1056C97.6041 26.2925 97.4396 26.4778 97.2732 26.6614L103.009 32.2136C103.035 32.2461 103.035 32.2786 103.009 32.3111L100.846 34.5712C100.821 34.6037 100.788 34.6037 100.756 34.5712L94.9746 28.9752C93.9669 29.8976 92.9083 30.7471 91.7986 31.5236L91.7981 31.5239C90.0044 32.779 88.0774 33.8436 86.0171 34.7176C85.9809 34.7392 85.9447 34.7257 85.905 34.6769L84.6897 31.742C84.6644 31.7041 84.6752 31.6634 84.7258 31.6201C87.9521 30.2597 90.7769 28.4223 93.2038 26.1081C95.6308 23.7938 97.6816 21.0811 99.3634 17.9701Z" fill="rgb(37,53,84)" fill-rule="evenodd" />
			</g>
			<g id="XMLID_19_" opacity="0">
				<path id="XMLID_22_" d="M39.8853 29.0449C39.1445 29.7849 37.6631 30.8949 35.0705 30.8949C33.9593 30.8949 32.6631 30.8949 32.1075 30.8949C31.3668 30.8949 25.8112 30.8949 19.1445 30.8949C23.9593 26.2699 28.0334 22.3849 28.4038 22.0149C28.7742 21.6449 29.7001 20.7199 30.626 19.9799C32.4779 18.3149 33.9594 18.1299 35.2556 18.1299C37.1075 18.1299 38.589 18.8699 39.8853 19.9799C42.4779 22.3849 42.4779 26.6399 39.8853 29.0449ZM43.0334 17.0199C41.1816 14.9849 38.4038 13.6899 35.4408 13.6899C32.8482 13.6899 30.626 14.6149 28.589 16.0949C27.8482 16.8349 26.7371 17.5749 25.8112 18.6849C25.0705 19.4249 9.14453 34.9649 9.14453 34.9649C10.0705 35.1499 11.1816 35.1499 12.1075 35.1499C13.0334 35.1499 31.5519 35.1499 32.2927 35.1499C33.7742 35.1499 34.8853 35.1499 35.9964 34.9649C38.4038 34.7799 40.8112 33.8549 42.8482 32.0049C47.1075 27.9349 47.1075 21.0899 43.0334 17.0199Z" fill="rgb(0,163,255)" fill-rule="nonzero" />
				<path id="XMLID_2_" d="M17.1069 15.9099C15.0698 14.4299 13.0328 13.6899 10.6254 13.6899C7.66242 13.6899 4.88464 14.9849 3.03279 17.0199C-1.04128 21.2749 -1.04128 27.9349 3.21798 32.1899C5.06983 33.8549 6.92168 34.7799 9.1439 34.9649L13.4032 30.8949C12.6624 30.8949 11.7365 30.8949 10.9958 30.8949C8.58835 30.7099 7.10687 29.9699 6.18094 29.0449C3.58835 26.4549 3.58835 22.3849 5.99576 19.7949C7.29205 18.4999 8.77353 17.9449 10.6254 17.9449C11.7365 17.9449 13.4032 18.1299 15.0698 19.7949C15.8106 20.5349 17.8476 22.0149 18.5884 22.7549L18.7735 22.7549L21.5513 19.9799L21.5513 19.7949C20.255 18.4999 18.218 16.8349 17.1069 15.9099Z" fill="rgb(0,200,220)" fill-rule="nonzero" />
				<path id="XMLID_1_" d="M36.5516 11.285C34.5145 5.73498 29.1442 1.84998 23.0331 1.84998C15.8108 1.84998 10.0701 7.21498 8.95898 13.875C9.51454 13.875 10.0701 13.69 10.8108 13.69C11.5516 13.69 12.4775 13.875 13.2182 13.875C14.1442 9.24998 18.2182 5.91998 23.0331 5.91998C27.1071 5.91998 30.6257 8.32498 32.2923 11.84C32.2923 11.84 32.4775 12.025 32.4775 11.84C33.7738 11.655 35.2553 11.285 36.5516 11.285Z" fill="rgb(0,110,255)" fill-rule="nonzero" />
			</g>
		</g>
	</g>
	<path id="矢量 482" d="M35.3335 34.9892L11.1386 34.9892C5.25964 35.2481 0.276259 30.8152 0.0112277 25.0838C-0.256415 19.3537 4.29351 14.4971 10.1725 14.2369C10.1568 7.27365 15.6912 1.49385 22.8196 1.02964C29.948 0.56673 36.2213 5.57763 37.1548 12.482C43.1631 13.3843 47.4414 18.6515 46.9636 24.5581C46.4858 30.4661 41.4149 35.0154 35.3348 34.9892L35.3335 34.9892ZM12.5513 31.2153L35.3335 31.2153C38.1001 31.2153 40.6564 29.7769 42.039 27.4428C42.7179 26.3016 43.0763 24.9979 43.0763 23.6696C43.0763 22.3412 42.7179 21.0375 42.039 19.8964C40.6551 17.5609 38.1001 16.1225 35.3335 16.1238C34.8205 16.1238 34.3283 15.925 33.9653 15.5707C33.7863 15.3977 33.6438 15.1906 33.5463 14.9614C33.4487 14.7323 33.3981 14.4859 33.3974 14.2369C33.3974 9.0272 29.0655 4.8035 23.7205 4.8035C18.3754 4.8035 14.0422 9.0272 14.0422 14.2369L14.0422 14.6331C18.6183 15.9041 21.7765 19.9748 21.7843 24.613C21.7843 25.2865 21.4161 25.9102 20.8169 26.2476C20.5211 26.4134 20.1878 26.5005 19.8488 26.5005C19.5098 26.5005 19.1765 26.4134 18.8807 26.2476C18.5891 26.0858 18.3459 25.849 18.1761 25.5617C18.0062 25.2744 17.916 24.9469 17.9146 24.613C17.9146 20.9739 14.8922 18.0199 11.1582 18.0094C7.41645 18.0094 4.3836 20.966 4.3836 24.613C4.3836 28.2588 7.41645 31.2166 11.1582 31.2166L11.9128 31.2166C12.1243 31.1813 12.3411 31.1813 12.5526 31.2166L12.5513 31.2153Z" fill="rgb(0,110,255)" fill-rule="nonzero" />
</svg>
