<svg viewBox="0 0 1077 259" xmlns="http://www.w3.org/2000/svg" xmlns:xlink="http://www.w3.org/1999/xlink" width="1077.000000" height="259.000000" fill="none" customFrame="#000000">
	<defs>
		<linearGradient id="paint_linear_3" x1="166" x2="166" y1="10" y2="250" gradientUnits="userSpaceOnUse">
			<stop stop-color="rgb(0,110,255)" offset="0" stop-opacity="1" />
			<stop stop-color="rgb(0,163,255)" offset="1" stop-opacity="1" />
		</linearGradient>
	</defs>
	<g id="组合 251">
		<g id="组合 241">
			<rect id="矩形 117" width="1050.000000" height="259.000000" x="27.000000" y="0.000000" fill="rgb(255,255,255)" fill-opacity="0" />
			<g id="组合 239">
				<g id="组合 238">
					<path id="矢量 270" d="M452.297 32.8587C452.474 33.0104 452.626 33.1432 452.702 33.257C452.828 33.3329 452.803 33.4657 452.651 33.6554C443.866 58.6654 433.954 82.7189 422.918 105.816L433.688 105.816C434.067 105.816 434.245 106.006 434.245 106.385L434.245 241.031C434.245 241.411 434.067 241.601 433.688 241.601L411.18 241.601C410.8 241.601 410.597 241.411 410.597 241.031L410.597 130.325C404.883 141.139 398.908 151.73 392.672 162.099C392.495 162.289 392.394 162.402 392.318 162.44C392.292 162.44 392.191 162.364 392.039 162.213L377.279 139.165C377.127 139.013 377.025 138.861 377 138.709C377 138.52 377.076 138.33 377.228 138.14C388.039 120.233 397.888 101.984 406.724 83.3938C415.61 64.8035 423.459 45.796 430.244 26.3711C430.422 26.1814 430.523 26.0486 430.599 25.9727C430.725 25.8589 430.877 25.8779 431.055 26.0296L452.297 32.8587ZM694.745 28.0783C694.745 27.6989 694.567 27.5092 694.188 27.5092L670.591 27.5092C670.211 27.5092 670.034 27.6989 670.034 28.0783L670.034 47.029L619.22 47.029C618.84 47.029 618.638 47.1997 618.638 47.5412L618.638 69.2804C618.638 69.6598 618.84 69.8495 619.22 69.8495L652.775 69.8495L621.549 112.759C621.473 112.797 621.473 112.986 621.549 113.328L621.549 113.442C621.575 113.518 621.6 113.556 621.6 113.556L654.51 142.746Q651.911 145.096 649.229 147.346Q634.954 159.322 618.309 168.473C617.979 168.776 617.878 169.042 618.005 169.269L628.613 188.675C628.892 189.017 629.145 189.093 629.398 188.903C649.956 177.635 668.262 163.18 684.339 145.538Q695.891 132.814 705.485 118.754Q715.887 103.51 723.987 86.6945C724.164 86.391 724.063 86.1064 723.683 85.8409L703.53 76.5078C703.251 76.3181 702.973 76.413 702.669 76.7924C694.056 95.1297 683.321 111.681 670.485 126.445L651.678 110.084L681.045 69.8495L744.647 69.8495C745.027 69.8495 745.229 69.6598 745.229 69.2804L745.229 47.5412C745.229 47.1997 745.027 47.029 744.647 47.029L694.745 47.029L694.745 28.0783ZM564.178 28.0214C564.457 27.8317 564.735 27.9266 565.039 28.306L576.609 60.744C576.787 61.0476 576.711 61.3321 576.331 61.5977L556.152 68.3129C555.874 68.5026 555.595 68.4078 555.291 68.0284L543.721 35.5903C543.544 35.3247 543.645 35.0402 544.025 34.7367L564.178 28.0214ZM827.083 28.7612C827.083 28.3819 826.906 28.1922 826.577 28.1922L804.069 28.1922C803.689 28.1922 803.487 28.3819 803.487 28.7612L803.487 214.114L778.725 214.114C778.345 214.114 778.143 214.303 778.143 214.683L778.143 238.641C778.143 239.021 778.345 239.21 778.725 239.21L826.577 239.21C826.906 239.21 827.083 239.021 827.083 238.641L827.083 28.7612ZM1043.15 38.3219C1043.48 38.3219 1043.66 38.5116 1043.66 38.891L1043.66 61.37C1043.66 61.7494 1043.48 61.9391 1043.15 61.9391L868.909 61.9391C868.529 61.9391 868.327 61.7494 868.327 61.37L868.327 38.891C868.327 38.5116 868.529 38.3219 868.909 38.3219L1043.15 38.3219ZM779.054 46.0046C779.054 45.6632 778.877 45.4925 778.548 45.4925L756.395 45.4925C756.065 45.4925 755.888 45.6632 755.888 46.0046L755.888 191.179C755.888 191.559 756.065 191.748 756.395 191.748L778.548 191.748C778.877 191.748 779.054 191.559 779.054 191.179L779.054 46.0046ZM596.839 73.4347C597.218 73.4347 597.396 73.6244 597.396 74.0038L597.396 95.743C597.396 96.1224 597.218 96.3121 596.839 96.3121L450.474 96.3121C450.094 96.3121 449.917 96.1224 449.917 95.743L449.917 74.0038C449.917 73.6244 450.094 73.4347 450.474 73.4347L596.839 73.4347ZM554.101 110.027C554.481 110.027 554.658 110.217 554.658 110.596L554.658 215.195L599.852 215.195C600.231 215.195 600.409 215.384 600.409 215.764L600.409 238.243C600.409 238.622 600.231 238.812 599.852 238.812L531.593 238.812C531.416 238.812 531.264 238.755 531.138 238.641C531.062 238.565 531.036 238.433 531.036 238.243L531.036 110.596C531.036 110.217 531.214 110.027 531.593 110.027L554.101 110.027ZM1061.1 110.312C1061.48 110.312 1061.68 110.501 1061.68 110.881L1061.68 133.36C1061.68 133.739 1061.48 133.929 1061.1 133.929L957.793 133.929L901.367 210.016L1023.1 210.016L1023.1 180.879C1023.1 180.499 1023.3 180.31 1023.68 180.31L1046.52 180.31C1046.9 180.31 1047.1 180.499 1047.1 180.879L1047.1 233.007C1047.1 233.387 1046.9 233.576 1046.52 233.576L854.705 233.576C854.528 233.576 854.402 233.538 854.376 233.463L854.376 233.235C854.402 233.159 854.427 233.102 854.427 233.064L927.963 133.929L855.566 133.929C855.187 133.929 854.984 133.739 854.984 133.36L854.984 110.881C854.984 110.501 855.187 110.312 855.566 110.312L1061.1 110.312ZM723.405 125.506C723.126 125.317 722.848 125.412 722.544 125.791C710.771 147.568 696.415 166.557 679.427 182.757C662.438 198.957 642.665 211.818 620.081 221.341C619.726 221.644 619.65 221.929 619.828 222.195L628.335 242.739C628.613 243.08 628.866 243.175 629.12 243.023C652.466 233.12 673.367 219.721 691.822 202.827L732.292 241.999C732.519 242.227 732.747 242.227 732.924 241.999L748.065 226.178C748.242 225.951 748.242 225.723 748.065 225.495L707.913 186.63Q709.659 184.703 711.365 182.74Q729.579 161.784 743.128 136.774C743.305 136.509 743.204 136.243 742.824 135.978L723.405 125.506Z" fill="rgb(37,53,84)" fill-rule="evenodd" />
				</g>
				<g id="XMLID_19_">
					<g id="组合 325" opacity="0">
						<path id="XMLID_22_" d="M279.193 203.315C274.008 208.495 263.637 216.265 245.489 216.265C237.712 216.265 228.637 216.265 224.749 216.265C219.563 216.265 180.674 216.265 134.008 216.265C167.712 183.89 196.23 156.695 198.823 154.105C201.415 151.515 207.897 145.04 214.378 139.86C227.341 128.205 237.712 126.91 246.786 126.91C259.749 126.91 270.119 132.09 279.193 139.86C297.341 156.695 297.341 186.48 279.193 203.315ZM301.23 119.14C288.267 104.895 268.823 95.8297 248.082 95.8297C229.934 95.8297 214.378 102.305 200.119 112.665C194.934 117.845 187.156 123.025 180.674 130.795C175.489 135.975 64.0078 244.755 64.0078 244.755C70.4893 246.05 78.2671 246.05 84.7486 246.05C91.23 246.05 220.86 246.05 226.045 246.05C236.415 246.05 244.193 246.05 251.971 244.755C268.823 243.46 285.674 236.985 299.934 224.035C329.749 195.545 329.749 147.63 301.23 119.14Z" fill="rgb(0,163,255)" fill-rule="nonzero" />
						<path id="XMLID_2_" d="M119.748 111.37C105.489 101.01 91.2296 95.8297 74.3777 95.8297C53.637 95.8297 34.1925 104.895 21.2296 119.14C-7.28897 148.925 -7.28897 195.545 22.5258 225.33C35.4888 236.985 48.4518 243.46 64.0073 244.755L93.8221 216.265C88.637 216.265 82.1555 216.265 76.9703 216.265C60.1184 214.97 49.7481 209.79 43.2666 203.315C25.1184 185.185 25.1184 156.695 41.9703 138.565C51.0444 129.5 61.4147 125.615 74.3777 125.615C82.1555 125.615 93.8221 126.91 105.489 138.565C110.674 143.745 124.933 154.105 130.118 159.285L131.415 159.285L150.859 139.86L150.859 138.565C141.785 129.5 127.526 117.845 119.748 111.37Z" fill="rgb(0,200,220)" fill-rule="nonzero" />
						<path id="XMLID_1_" d="M255.859 78.9947C241.6 40.1447 204.007 12.9497 161.229 12.9497C110.674 12.9497 70.4887 50.5047 62.7109 97.1247C66.5998 97.1247 70.4887 95.8297 75.6739 95.8297C80.8591 95.8297 87.3406 97.1247 92.5258 97.1247C99.0072 64.7497 127.526 41.4397 161.229 41.4397C189.748 41.4397 214.378 58.2747 226.044 82.8797C226.044 82.8797 227.341 84.1747 227.341 82.8797C236.415 81.5847 246.785 78.9947 255.859 78.9947Z" fill="rgb(0,110,255)" fill-rule="nonzero" />
					</g>
					<path id="矢量 484" d="M249.59 249.924L78.6814 249.924C37.1532 251.751 1.95145 220.46 0.0793106 180.003C-1.81127 139.555 30.3286 105.274 71.8569 103.437C71.7462 54.2846 110.84 13.486 161.194 10.2092C211.548 6.94162 255.861 42.3127 262.455 91.0494C304.897 97.4185 335.118 134.599 331.743 176.293C328.368 217.996 292.548 250.108 249.599 249.924L249.59 249.924ZM88.66 223.285L249.59 223.285C269.132 223.285 287.19 213.131 296.956 196.655C301.752 188.6 304.283 179.397 304.283 170.021C304.283 160.644 301.752 151.441 296.956 143.386C287.18 126.9 269.132 116.747 249.59 116.756C245.966 116.756 242.489 115.353 239.925 112.852C238.661 111.631 237.654 110.169 236.965 108.551C236.276 106.934 235.918 105.195 235.913 103.437C235.913 66.6626 205.314 36.8483 167.557 36.8483C129.801 36.8483 99.192 66.6626 99.192 103.437L99.192 106.234C131.516 115.206 153.825 143.94 153.881 176.68C153.881 181.434 151.28 185.837 147.047 188.218C144.957 189.389 142.603 190.004 140.208 190.004C137.814 190.004 135.459 189.389 133.37 188.218C131.31 187.076 129.592 185.405 128.393 183.377C127.193 181.349 126.555 179.037 126.545 176.68C126.545 150.992 105.196 130.14 78.8198 130.067C52.3885 130.067 30.965 150.937 30.965 176.68C30.965 202.415 52.3885 223.294 78.8198 223.294L84.1503 223.294C85.6443 223.045 87.1753 223.045 88.6693 223.294L88.66 223.285Z" fill="url(#paint_linear_3)" fill-rule="nonzero" />
				</g>
			</g>
		</g>
		<rect id="矩形 118" width="206.957993" height="23.734373" x="0.000000" y="0.000000" fill="rgb(37,53,84)" transform="matrix(-0.0962395,0.995358,-0.995358,-0.0962395,508.811,36.6415)" />
	</g>
</svg>
