<?xml version="1.0" encoding="utf-8" ?><svg xmlns="http://www.w3.org/2000/svg" xmlns:xlink="http://www.w3.org/1999/xlink" width="1068.3955" height="247"><path fill="#253554" transform="matrix(1 0 0 1 383.716 17)" d="M75.297 6.9591C75.474 7.1108 75.626 7.2436 75.702 7.3575C75.828 7.4333 75.803 7.5661 75.651 7.7559C66.866 32.7658 56.954 56.8194 45.918 79.9164L56.688 79.9164C57.067 79.9165 57.245 80.1064 57.245 80.4854L57.245 215.1315C57.245 215.5114 57.067 215.7014 56.688 215.7014L34.18 215.7014C33.8 215.7014 33.597 215.5114 33.597 215.1315L33.597 104.4254C27.883 115.2395 21.908 125.8304 15.672 136.1995C15.495 136.3895 15.394 136.5024 15.318 136.5405C15.292 136.5405 15.191 136.4644 15.039 136.3134L0.279 113.2654C0.127 113.1134 0.025 112.9614 0 112.8094C0 112.6205 0.076 112.4305 0.228 112.2404C11.039 94.3335 20.888 76.0844 29.724 57.4943C38.61 38.9039 46.459 19.8964 53.244 0.4716C53.422 0.2818 53.523 0.149 53.599 0.0732C53.725 -0.0407 53.877 -0.0217 54.055 0.13L75.297 6.9591ZM317.7449 2.1787C317.7449 1.7993 317.567 1.6096 317.1879 1.6096L293.5909 1.6096C293.2109 1.6096 293.0339 1.7993 293.0339 2.1787L293.0339 21.1295L242.2199 21.1295C241.84 21.1294 241.638 21.3001 241.638 21.6416L241.638 43.3809C241.638 43.7602 241.84 43.95 242.2199 43.95L275.775 43.95L244.549 86.8595C244.473 86.8974 244.473 87.0864 244.549 87.4285L244.549 87.5424C244.575 87.6184 244.5999 87.6564 244.5999 87.6565L277.5099 116.8465C275.7773 118.4131 274.017 119.9465 272.2289 121.4464C262.7123 129.4305 252.4057 136.4728 241.309 142.5735C240.979 142.8764 240.8779 143.1425 241.005 143.3694L251.6129 162.7755C251.892 163.1174 252.145 163.1935 252.398 163.0034C272.9559 151.7354 291.262 137.2804 307.3389 119.6385C315.0403 111.1558 322.0889 102.2278 328.4849 92.8545C335.4196 82.6918 341.587 72.0053 346.9869 60.795C347.1639 60.4914 347.0629 60.2068 346.6829 59.9413L326.53 50.6082C326.2509 50.4185 325.973 50.5135 325.6689 50.8929C317.056 69.2301 306.3209 85.7814 293.4849 100.5454L274.6779 84.1844L304.0449 43.95L367.6469 43.95C368.0269 43.95 368.2289 43.7602 368.2289 43.3809L368.2289 21.6416C368.2289 21.3001 368.0269 21.1294 367.6469 21.1295L317.7449 21.1295L317.7449 2.1787ZM187.1779 2.1219C187.4569 1.9321 187.735 2.027 188.039 2.4064L199.609 34.8445C199.787 35.148 199.711 35.4325 199.331 35.6982L179.1519 42.4134C178.874 42.6031 178.5949 42.5082 178.291 42.1288L166.721 9.6907C166.544 9.4251 166.645 9.1406 167.025 8.8372L187.1779 2.1219ZM450.0829 2.8616C450.0829 2.4823 449.9059 2.2926 449.5769 2.2926L427.0689 2.2926C426.6889 2.2926 426.4869 2.4823 426.4869 2.8616L426.4869 188.2144L401.7249 188.2144C401.3449 188.2144 401.1429 188.4034 401.1429 188.7834L401.1429 212.7415C401.1429 213.1214 401.3449 213.3105 401.7249 213.3105L449.5769 213.3105C449.9059 213.3105 450.0829 213.1214 450.0829 212.7415L450.0829 2.8616ZM666.1499 12.4223C666.4799 12.4223 666.6599 12.612 666.6599 12.9915L666.6599 35.4705C666.6599 35.8498 666.4799 36.0395 666.1499 36.0396L491.9089 36.0396C491.5289 36.0395 491.3269 35.8498 491.3269 35.4705L491.3269 12.9915C491.3269 12.612 491.5289 12.4223 491.9089 12.4223L666.1499 12.4223ZM402.054 20.105C402.054 19.7636 401.877 19.5929 401.5479 19.593L379.395 19.593C379.0649 19.5929 378.8879 19.7636 378.8879 20.105L378.8879 165.2794C378.8879 165.6595 379.0649 165.8484 379.395 165.8484L401.5479 165.8484C401.877 165.8484 402.054 165.6595 402.054 165.2794L402.054 20.105ZM219.839 47.5352C220.218 47.5351 220.396 47.7248 220.396 48.1042L220.396 69.8434C220.396 70.2228 220.218 70.4126 219.839 70.4126L73.474 70.4126C73.094 70.4126 72.917 70.2228 72.917 69.8434L72.917 48.1042C72.917 47.7248 73.094 47.5351 73.474 47.5352L219.839 47.5352ZM177.101 84.1274C177.481 84.1274 177.658 84.3175 177.658 84.6964L177.658 189.2955L222.852 189.2955C223.231 189.2955 223.409 189.4845 223.409 189.8645L223.409 212.3434C223.409 212.7224 223.231 212.9124 222.852 212.9124L154.593 212.9124C154.416 212.9124 154.2639 212.8555 154.138 212.7415C154.062 212.6655 154.036 212.5334 154.036 212.3434L154.036 84.6964C154.036 84.3175 154.214 84.1274 154.593 84.1274L177.101 84.1274ZM684.0999 84.4124C684.4799 84.4124 684.6799 84.6014 684.6799 84.9814L684.6799 107.4604C684.6799 107.8394 684.4799 108.0294 684.0999 108.0294L580.7929 108.0294L524.3669 184.1165L646.0999 184.1165L646.0999 154.9795C646.0999 154.5994 646.2999 154.4104 646.6799 154.4105L669.5199 154.4105C669.8999 154.4104 670.0999 154.5994 670.0999 154.9795L670.0999 207.1075C670.0999 207.4874 669.8999 207.6765 669.5199 207.6765L477.7049 207.6765C477.5279 207.6765 477.4019 207.6384 477.3759 207.5634L477.3759 207.3354C477.4019 207.2594 477.4269 207.2025 477.4269 207.1645L550.9629 108.0294L478.5659 108.0294C478.1869 108.0294 477.9839 107.8394 477.9839 107.4604L477.9839 84.9814C477.9839 84.6014 478.1869 84.4124 478.5659 84.4124L684.0999 84.4124ZM346.405 99.6064C346.1259 99.4174 345.848 99.5125 345.5439 99.8914C333.7709 121.6684 319.4149 140.6575 302.4269 156.8575C285.4379 173.0574 265.6649 185.9184 243.081 195.4415C242.726 195.7444 242.65 196.0294 242.828 196.2955L251.335 216.8394C251.6129 217.1805 251.866 217.2755 252.12 217.1234C275.4659 207.2204 296.3669 193.8214 314.822 176.9275L355.2919 216.0995C355.5189 216.3275 355.7469 216.3275 355.924 216.0995L371.0649 200.2784C371.2419 200.0515 371.2419 199.8235 371.0649 199.5955L330.913 160.7305C332.077 159.4458 333.2276 158.1491 334.3649 156.8405C346.5076 142.8698 357.0953 127.5478 366.1279 110.8745C366.3049 110.6095 366.2039 110.3434 365.8239 110.0785L346.405 99.6064Z" fill-rule="evenodd"/><rect fill="#253554" transform="matrix(-0.0962395 0.995358 -0.995358 -0.0962395 515.528 27.7419)" width="206.9579" height="23.7344"/><defs><linearGradient id="gradient_0" gradientTransform="matrix(0 159.178 -273.59 0 136.795 0)" gradientUnits="userSpaceOnUse" x1="0" y1="0" x2="1" y2="0"><stop offset="0" stop-color="#42B4F5"/><stop offset="1" stop-color="#2B86FD"/></linearGradient></defs><path fill="url(#gradient_0)" transform="matrix(1 0 0 1 75.4722 87.8222)" d="M227.7889 113.8944C222.3 119.3833 211.3223 127.6167 192.1111 127.6167C183.8778 127.6167 174.2723 127.6167 170.1556 127.6167C164.6667 127.6167 123.5 127.6167 74.1 127.6167C109.7778 93.3111 139.9667 64.4945 142.7111 61.75C145.4556 59.0056 152.3167 52.1444 159.1778 46.6555C172.9 34.3055 183.8778 32.9333 193.4834 32.9333C207.2056 32.9333 218.1834 38.4222 227.7889 46.6555C247 64.4945 247 96.0555 227.7889 113.8944ZM251.1167 24.7C237.3945 9.6056 216.8112 0 194.8556 0C175.6445 0 159.1778 6.8611 144.0834 17.8389C138.5945 23.3278 130.3611 28.8167 123.5 37.05C118.0111 42.5389 0 157.8056 0 157.8056C6.8611 159.1778 15.0944 159.1778 21.9556 159.1778C28.8167 159.1778 166.0389 159.1778 171.5278 159.1778C182.5056 159.1778 190.7389 159.1778 198.9723 157.8056C216.8112 156.4333 234.65 149.5722 249.7445 135.85C281.3056 105.6611 281.3056 54.8889 251.1167 24.7Z"/><path fill="#0052D9" transform="matrix(1 0 0 1 7.71582 87.8222)" d="M126.7619 16.4667C111.6675 5.4889 96.573 0 78.7341 0C56.7785 0 36.1952 9.6056 22.473 24.7C-7.7159 56.2611 -7.7159 105.6611 23.8452 137.2222C37.5674 149.5722 51.2897 156.4333 67.7563 157.8056L99.3174 127.6167C93.8286 127.6167 86.9675 127.6167 81.4786 127.6167C63.6397 126.2444 52.6619 120.7555 45.8008 113.8944C26.5897 94.6833 26.5897 64.4944 44.4286 45.2833C54.0341 35.6778 65.0119 31.5611 78.7341 31.5611C86.9674 31.5611 99.3175 32.9333 111.6674 45.2833C117.1563 50.7722 132.2508 61.75 137.7397 67.2389L139.1119 67.2389L159.6953 46.6555L159.6953 45.2833C150.0897 35.6778 134.9952 23.3278 126.7619 16.4667Z"/><path fill="#006EFF" transform="matrix(1 0 0 1 74.0999 0)" d="M204.4611 69.9833C189.3667 28.8167 149.5722 0 104.2889 0C50.7722 0 8.2333 39.7944 0 89.1944C4.1167 89.1944 8.2333 87.8222 13.7222 87.8222C19.2111 87.8222 26.0722 89.1944 31.5611 89.1944L31.5611 89.1944C38.4222 54.8889 68.6111 30.1889 104.2889 30.1889C134.4778 30.1889 160.55 48.0278 172.9 74.1C172.9 74.1 174.2722 75.4722 174.2722 74.1C183.8778 72.7278 194.8555 69.9833 204.4611 69.9833C204.4611 71.3555 204.4611 71.3555 204.4611 69.9833Z"/></svg>